<svg width="0" height="0" class="hidden">
  <symbol  xmlns="http://www.w3.org/2000/svg" viewBox="0 0 20 20" id="facebook">
    <path d="M11.4908 19.9953V10.8744H14.4391L14.8805 7.31986H11.4908V5.05039C11.4908 4.02129 11.766 3.31991 13.1873 3.31991L15 3.31903V0.139911C14.6863 0.09675 13.6104 0 12.3587 0C9.74517 0 7.95593 1.65642 7.95593 4.69854V7.31996H5V10.8745H7.95584V19.9953L11.4908 19.9953Z" ></path>
  </symbol>
  <symbol  xmlns="http://www.w3.org/2000/svg" viewBox="0 0 20 20" id="in">
    <path d="M17.0392 17.0433H14.0775V12.4025C14.0775 11.2958 14.055 9.87167 12.5342 9.87167C10.99 9.87167 10.7542 11.0758 10.7542 12.3208V17.0433H7.7925V7.5H10.6375V8.80083H10.6758C11.0733 8.05083 12.04 7.25917 13.4842 7.25917C16.485 7.25917 17.04 9.23417 17.04 11.805V17.0433H17.0392ZM4.4475 6.19417C3.49417 6.19417 2.72833 5.4225 2.72833 4.47333C2.72833 3.525 3.495 2.75417 4.4475 2.75417C5.3975 2.75417 6.1675 3.525 6.1675 4.47333C6.1675 5.4225 5.39667 6.19417 4.4475 6.19417ZM5.9325 17.0433H2.9625V7.5H5.9325V17.0433ZM18.5208 0H1.47583C0.66 0 0 0.645 0 1.44083V18.5592C0 19.3558 0.66 20 1.47583 20H18.5183C19.3333 20 20 19.3558 20 18.5592V1.44083C20 0.645 19.3333 0 18.5183 0H18.5208Z" ></path>
  </symbol>
  <symbol  xmlns="http://www.w3.org/2000/svg" viewBox="0 0 20 20" id="instagram">
    <path d="M10 0C7.28333 0 6.94417 0.0125 5.8775 0.06C4.8125 0.11 4.0875 0.2775 3.45 0.525C2.7925 0.78 2.23417 1.1225 1.67833 1.67833C1.1225 2.23417 0.779167 2.79167 0.525 3.45C0.2775 4.0875 0.109167 4.8125 0.06 5.8775C0.01 6.94417 0 7.28333 0 10C0 12.7167 0.0125 13.0558 0.06 14.1225C0.11 15.1867 0.2775 15.9125 0.525 16.55C0.78 17.2067 1.1225 17.7658 1.67833 18.3217C2.23417 18.8767 2.79167 19.2208 3.45 19.475C4.08833 19.7217 4.81333 19.8908 5.8775 19.94C6.94417 19.99 7.28333 20 10 20C12.7167 20 13.0558 19.9875 14.1225 19.94C15.1867 19.89 15.9125 19.7217 16.55 19.475C17.2067 19.22 17.7658 18.8767 18.3217 18.3217C18.8767 17.7658 19.2208 17.2092 19.475 16.55C19.7217 15.9125 19.8908 15.1867 19.94 14.1225C19.99 13.0558 20 12.7167 20 10C20 7.28333 19.9875 6.94417 19.94 5.8775C19.89 4.81333 19.7217 4.08667 19.475 3.45C19.22 2.7925 18.8767 2.23417 18.3217 1.67833C17.7658 1.1225 17.2092 0.779167 16.55 0.525C15.9125 0.2775 15.1867 0.109167 14.1225 0.06C13.0558 0.01 12.7167 0 10 0ZM10 1.8C12.6692 1.8 12.9875 1.81333 14.0417 1.85917C15.0167 1.905 15.5458 2.06667 15.8975 2.205C16.3658 2.38583 16.6975 2.6025 17.0492 2.95167C17.3983 3.30167 17.615 3.63417 17.7958 4.1025C17.9325 4.45417 18.0958 4.98333 18.14 5.95833C18.1875 7.01333 18.1983 7.33 18.1983 10C18.1983 12.67 18.1858 12.9875 18.1367 14.0417C18.0858 15.0167 17.9233 15.5458 17.7858 15.8975C17.5992 16.3658 17.3867 16.6975 17.0367 17.0492C16.6875 17.3983 16.35 17.615 15.8867 17.7958C15.5367 17.9325 14.9992 18.0958 14.0242 18.14C12.9625 18.1875 12.65 18.1983 9.975 18.1983C7.29917 18.1983 6.98667 18.1858 5.92583 18.1367C4.95 18.0858 4.4125 17.9233 4.0625 17.7858C3.58833 17.5992 3.2625 17.3867 2.91333 17.0367C2.5625 16.6875 2.33833 16.35 2.16333 15.8867C2.02583 15.5367 1.86417 14.9992 1.81333 14.0242C1.77583 12.9742 1.7625 12.65 1.7625 9.9875C1.7625 7.32417 1.77583 6.99917 1.81333 5.93667C1.86417 4.96167 2.02583 4.425 2.16333 4.075C2.33833 3.6 2.5625 3.275 2.91333 2.92417C3.2625 2.575 3.58833 2.35 4.0625 2.17583C4.4125 2.0375 4.93833 1.875 5.91333 1.825C6.97583 1.7875 7.28833 1.775 9.9625 1.775L10 1.8ZM10 4.865C7.1625 4.865 4.865 7.165 4.865 10C4.865 12.8375 7.165 15.135 10 15.135C12.8375 15.135 15.135 12.835 15.135 10C15.135 7.1625 12.835 4.865 10 4.865ZM10 13.3333C8.15833 13.3333 6.66667 11.8417 6.66667 10C6.66667 8.15833 8.15833 6.66667 10 6.66667C11.8417 6.66667 13.3333 8.15833 13.3333 10C13.3333 11.8417 11.8417 13.3333 10 13.3333ZM16.5383 4.6625C16.5383 5.325 16 5.8625 15.3383 5.8625C14.6758 5.8625 14.1383 5.32417 14.1383 4.6625C14.1383 4.00083 14.6767 3.46333 15.3383 3.46333C15.9992 3.4625 16.5383 4.00083 16.5383 4.6625Z"></path>
  </symbol>
  <symbol fill="none" xmlns="http://www.w3.org/2000/svg" viewBox="0 0 70 17" id="logo">
    <path d="M0.0120001 15.296H0.826C1.69133 15.296 2.322 14.7607 2.718 13.69L7.448 0.336H7.998L12.772 14.328C12.9187 14.6947 13.0947 14.9513 13.3 15.098C13.5053 15.23 13.7693 15.296 14.092 15.296H15.324V16H8.504V15.296H9.956C10.176 15.296 10.3593 15.2447 10.506 15.142C10.6527 15.0247 10.726 14.8927 10.726 14.746C10.726 14.5553 10.6967 14.394 10.638 14.262L9.604 11.336H4.456L3.928 12.81C3.72267 13.3967 3.62 13.822 3.62 14.086C3.62 14.4087 3.70067 14.6947 3.862 14.944C4.02333 15.1787 4.302 15.296 4.698 15.296H6.04V16H0.0120001V15.296ZM4.698 10.632H9.362L7.074 3.922L4.698 10.632ZM20.3328 16.264C19.6728 16.264 19.1228 16.0293 18.6828 15.56C18.2574 15.0907 18.0448 14.4527 18.0448 13.646V6.584H16.4168V5.968H16.9008C17.5608 5.968 18.0741 5.616 18.4408 4.912C18.8221 4.19333 19.0128 3.40133 19.0128 2.536V1.744H19.6288V5.968H22.3568V6.584H19.6288V13.756C19.6288 14.196 19.7168 14.5627 19.8928 14.856C20.0688 15.1493 20.3694 15.296 20.7948 15.296C21.8361 15.296 22.3568 14.416 22.3568 12.656H22.7528C22.7528 13.6387 22.6061 14.4893 22.3128 15.208C22.0341 15.912 21.3741 16.264 20.3328 16.264ZM29.0802 16.264C27.7162 16.264 26.6162 15.802 25.7802 14.878C24.9589 13.954 24.5482 12.6707 24.5482 11.028C24.5482 10.0893 24.7315 9.21667 25.0982 8.41C25.4649 7.58867 25.9709 6.936 26.6162 6.452C27.2762 5.95333 28.0095 5.704 28.8162 5.704C29.7109 5.704 30.4442 5.946 31.0162 6.43C31.5882 6.914 31.9989 7.53 32.2482 8.278C32.5122 9.01133 32.6442 9.76667 32.6442 10.544C32.6442 10.7053 32.5929 10.8153 32.4902 10.874C32.3875 10.918 32.2115 10.94 31.9622 10.94H26.4842C26.4842 12.4067 26.6895 13.5727 27.1002 14.438C27.5255 15.3033 28.2149 15.736 29.1682 15.736C29.8429 15.736 30.4735 15.4793 31.0602 14.966C31.6615 14.4527 32.0429 13.6533 32.2042 12.568H32.7322C32.6442 13.6387 32.2702 14.526 31.6102 15.23C30.9649 15.9193 30.1215 16.264 29.0802 16.264ZM30.7522 10.412C30.7522 9.23867 30.5982 8.24867 30.2902 7.442C29.9822 6.63533 29.4762 6.232 28.7722 6.232C28.0242 6.232 27.4522 6.64267 27.0562 7.464C26.6749 8.27067 26.4842 9.25333 26.4842 10.412H30.7522ZM34.2273 15.472H35.3713C35.5473 15.472 35.672 15.4353 35.7453 15.362C35.8187 15.2887 35.8553 15.164 35.8553 14.988V1.348C35.8553 1.172 35.8187 1.04733 35.7453 0.973999C35.672 0.900666 35.5473 0.863999 35.3713 0.863999H34.2273V0.336H37.4393V14.988C37.4393 15.164 37.476 15.2887 37.5493 15.362C37.6227 15.4353 37.7473 15.472 37.9233 15.472H39.0673V16H34.2273V15.472ZM42.445 3.24C42.1223 3.24 41.851 3.13 41.631 2.91C41.411 2.69 41.301 2.41867 41.301 2.096C41.301 1.75867 41.411 1.48733 41.631 1.282C41.851 1.062 42.1223 0.952 42.445 0.952C42.7823 0.952 43.0537 1.062 43.259 1.282C43.479 1.48733 43.589 1.75867 43.589 2.096C43.589 2.41867 43.479 2.69 43.259 2.91C43.0537 3.13 42.7823 3.24 42.445 3.24ZM40.377 15.472H41.301C41.477 15.472 41.6017 15.4353 41.675 15.362C41.7483 15.2887 41.785 15.164 41.785 14.988V6.98C41.785 6.804 41.7483 6.67933 41.675 6.606C41.6017 6.53267 41.477 6.496 41.301 6.496H40.377V5.968H43.369V14.988C43.369 15.164 43.4057 15.2887 43.479 15.362C43.5523 15.4353 43.677 15.472 43.853 15.472H44.777V16H40.377V15.472ZM51.0587 16.264C49.6947 16.264 48.5947 15.802 47.7587 14.878C46.9374 13.954 46.5267 12.6707 46.5267 11.028C46.5267 10.0893 46.71 9.21667 47.0767 8.41C47.4434 7.58867 47.9494 6.936 48.5947 6.452C49.2547 5.95333 49.988 5.704 50.7947 5.704C51.6894 5.704 52.4227 5.946 52.9947 6.43C53.5667 6.914 53.9774 7.53 54.2267 8.278C54.4907 9.01133 54.6227 9.76667 54.6227 10.544C54.6227 10.7053 54.5714 10.8153 54.4687 10.874C54.366 10.918 54.19 10.94 53.9407 10.94H48.4627C48.4627 12.4067 48.668 13.5727 49.0787 14.438C49.504 15.3033 50.1934 15.736 51.1467 15.736C51.8214 15.736 52.452 15.4793 53.0387 14.966C53.64 14.4527 54.0214 13.6533 54.1827 12.568H54.7107C54.6227 13.6387 54.2487 14.526 53.5887 15.23C52.9434 15.9193 52.1 16.264 51.0587 16.264ZM52.7307 10.412C52.7307 9.23867 52.5767 8.24867 52.2687 7.442C51.9607 6.63533 51.4547 6.232 50.7507 6.232C50.0027 6.232 49.4307 6.64267 49.0347 7.464C48.6534 8.27067 48.4627 9.25333 48.4627 10.412H52.7307ZM56.4258 15.472H57.3498C57.5258 15.472 57.6505 15.4353 57.7238 15.362C57.7972 15.2887 57.8338 15.164 57.8338 14.988V6.98C57.8338 6.804 57.7972 6.67933 57.7238 6.606C57.6505 6.53267 57.5258 6.496 57.3498 6.496H56.4258V5.968H59.4178V8.168L59.5058 8.19C59.8138 7.42733 60.2098 6.826 60.6938 6.386C61.1925 5.93133 61.7205 5.704 62.2778 5.704C62.8352 5.704 63.2898 5.86533 63.6418 6.188C63.9938 6.51067 64.1698 6.95067 64.1698 7.508C64.1698 7.83067 64.0525 8.146 63.8178 8.454C63.5978 8.762 63.3118 8.916 62.9598 8.916C62.6812 8.916 62.4465 8.84267 62.2558 8.696C62.0652 8.54933 61.9698 8.344 61.9698 8.08C61.9698 7.772 62.1165 7.508 62.4098 7.288C62.5418 7.2 62.6372 7.11933 62.6958 7.046C62.7692 6.97267 62.8058 6.87733 62.8058 6.76C62.8058 6.628 62.7398 6.52533 62.6078 6.452C62.4905 6.364 62.3218 6.32 62.1018 6.32C61.6472 6.32 61.2072 6.54 60.7818 6.98C60.3712 7.42 60.0412 7.992 59.7918 8.696C59.5425 9.4 59.4178 10.1333 59.4178 10.896V14.988C59.4178 15.164 59.4545 15.2887 59.5278 15.362C59.6012 15.4353 59.7258 15.472 59.9018 15.472H60.8258V16H56.4258V15.472ZM67.6933 16.264C67.2973 16.264 66.9673 16.1393 66.7033 15.89C66.4539 15.626 66.3293 15.296 66.3293 14.9C66.3293 14.504 66.4539 14.1813 66.7033 13.932C66.9673 13.668 67.2973 13.536 67.6933 13.536C68.0893 13.536 68.4119 13.668 68.6613 13.932C68.9253 14.1813 69.0573 14.504 69.0573 14.9C69.0573 15.296 68.9253 15.626 68.6613 15.89C68.4119 16.1393 68.0893 16.264 67.6933 16.264Z" fill="#FFAE2B"></path>
  </symbol>
  <symbol fill="none" xmlns="http://www.w3.org/2000/svg" viewBox="0 0 60 60" id="service-1">
    <path d="M48.12 0H9.84V38.28H48.12V0Z" fill="#54493E"></path>
    <path d="M29.28 20.7598L51.96 59.9998H6.66L29.28 20.7598ZM43.68 55.1998L29.28 30.2998L14.88 55.1998H43.68Z" fill="#FFAE2B"></path>
  </symbol>
  <symbol fill="none" xmlns="http://www.w3.org/2000/svg" viewBox="0 0 60 60" id="service-2">
    <path d="M27 59.82C27.3 59.82 27.54 59.88 27.84 59.88H32.16C44.34 59.88 54.18 50.04 54.18 37.86V33.54C54.18 21.36 44.34 11.52 32.16 11.52H27.84C27.54 11.52 27.3 11.58 27 11.58V59.82Z" fill="#FFAE2B"></path>
    <path d="M33.96 52.08H29.82C16.62 52.08 5.88 41.34 5.88 28.14V24C5.88 10.74 16.62 0 29.82 0H33.96C34.2 0 34.38 0 34.62 0L37.44 0.12V51.9L34.62 52.02C34.44 52.08 34.2 52.08 33.96 52.08ZM29.82 5.4C19.56 5.4 11.22 13.74 11.22 24V28.14C11.22 38.4 19.56 46.74 29.82 46.74H32.1V5.4H29.82Z" fill="#54493E"></path>
  </symbol>
  <symbol fill="none" xmlns="http://www.w3.org/2000/svg" viewBox="0 0 60 60" id="service-3">
    <g clip-path="url(#clip0_1_150)">
      <path d="M29.82 60.06L51.72 41.34L43.38 27.48H16.26L7.85999 41.34L29.82 60.06Z" fill="#54493E"></path>
      <path d="M29.4 42.78C17.58 42.78 8.03998 33.18 8.03998 21.42C8.03998 9.66 17.64 0 29.4 0C41.16 0 50.76 9.6 50.76 21.36C50.76 33.12 41.22 42.78 29.4 42.78ZM29.4 4.98C20.34 4.98 12.96 12.36 12.96 21.42C12.96 30.48 20.34 37.8 29.4 37.8C38.46 37.8 45.84 30.42 45.84 21.36C45.84 12.3 38.46 4.98 29.4 4.98Z" fill="#FFAE2B"></path>
    </g>
    <defs>
      <clipPath id="clip0_1_150">
        <rect width="60" height="60" fill="white"></rect>
      </clipPath>
    </defs>
  </symbol>
  <symbol xmlns="http://www.w3.org/2000/svg" viewBox="0 0 20 20" id="twitter">
    <g clip-path="url(#clip0_1_251)">
      <path d="M19.9617 3.80742C19.2242 4.13158 18.4367 4.35242 17.6075 4.45325C18.4525 3.94408 19.1025 3.14158 19.41 2.18408C18.6175 2.64658 17.7392 2.98325 16.8042 3.17075C16.0575 2.37158 14.9933 1.87158 13.8117 1.87158C11.5475 1.87158 9.71167 3.70742 9.71167 5.96908C9.71167 6.29408 9.74917 6.60658 9.8175 6.90575C6.40917 6.74492 3.38833 5.10825 1.36667 2.63408C1.01083 3.23575 0.811667 3.93492 0.811667 4.69658C0.811667 6.12158 1.53667 7.37408 2.635 8.10991C1.9625 8.08825 1.33 7.90325 0.778333 7.59658V7.64741C0.778333 9.63494 2.18917 11.2924 4.06667 11.6699C3.7225 11.7624 3.35917 11.8124 2.98667 11.8124C2.725 11.8124 2.47417 11.7874 2.22333 11.7408C2.74917 13.3683 4.26083 14.5549 6.06 14.5883C4.66 15.6874 2.88583 16.3424 0.975 16.3424C0.65 16.3424 0.325833 16.3233 0 16.2866C1.82417 17.4483 3.97333 18.1274 6.2975 18.1274C13.8425 18.1274 17.9633 11.8808 17.9633 6.47241C17.9633 6.29825 17.9633 6.12241 17.9508 5.94741C18.7517 5.37325 19.4508 4.64742 20.0008 3.82408L19.9617 3.80742Z" ></path>
    </g>
    <defs>
      <clipPath id="clip0_1_251">
        <rect width="20" height="20" fill="white"></rect>
      </clipPath>
    </defs>
  </symbol>
</svg>